# xmcd
#
# Track frame offsets:
#	150
#	14032
#	26625
#	36862
#	47575
#	59925
#	79875
#	100725
#	114350
#	134250
#	150300
#	162300
#
# Disc length: 2277 seconds
#
# Revision: 0
# Processed by: cddbd v1.4PL0 Copyright (c) Steve Scherf et al.
# Submitted via: EasyCDDAExtractor 4.5.0.2
#
DISCID=9a08e30c
DTITLE=The Beatles Revival Band - On Tour - Day after Day
DYEAR=1983
DGENRE=Beat
TTITLE0=Twist and Shout
TTITLE1=She's A Woman
TTITLE2=All My Lovin'
TTITLE3=I Feel Fine
TTITLE4=She Loves You
TTITLE5=Get Back
TTITLE6=Come Together
TTITLE7=With A Little Help
TTITLE8=Helter Skelter
TTITLE9=Revolution
TTITLE10=Birthday
TTITLE11=Sgt. Pepper
EXTD=
EXTT0=
EXTT1=
EXTT2=
EXTT3=
EXTT4=
EXTT5=
EXTT6=
EXTT7=
EXTT8=
EXTT9=
EXTT10=
EXTT11=
PLAYORDER=
